# xmcd CD database file
#
# Track frame offsets:
#	150
#	8770
#	17645
#	24860
#	32757
#	43647
#	52647
#	61342
#	69660
#	78710
#	90890
#	104995
#	118832
#	129232
#	141060
#	155822
#	169930
#	186562
#	198475
#	208262
#	213520
#	227037
#	232870
#	239045
#	252842
#
# Disc length: 3556 seconds
#
# Revision: 0
# Processed by: cddbd v1.5.2PL0 Copyright (c) Steve Scherf et al.
# Submitted via: CDex 1.51
#
DISCID=600de219
DTITLE=Gene Autry - The Western Collection - 25 Cowboy Classics
DYEAR=2001
DGENRE=Country
TTITLE0=Tumbling Tumbleweeds
TTITLE1=Call of the Canyon
TTITLE2=Red River Valley
TTITLE3=Purple Sage in the Twilight
TTITLE4=Take Me Back to My Boots and Saddle
TTITLE5=Twilight on the Trail
TTITLE6=There's a Rainbow on the Rio Colorado
TTITLE7=Oklahoma Hills
TTITLE8=Sioux City Sue
TTITLE9=South of the Border (Down Mexico Way)
TTITLE10=The Last Roundup
TTITLE11=Rounded Up in Glory
TTITLE12=Ridin' Down the Canyon
TTITLE13=The Singing Hills
TTITLE14=Ole Faithful
TTITLE15=Blue Shadows on the Trail
TTITLE16=Ghost Riders in the Sky
TTITLE17=Mule Train
TTITLE18=Sing Me a Song of the Saddle
TTITLE19=The Old Chisholm Trail
TTITLE20=There's a Goldmine in the Sky
TTITLE21=Home on the Range
TTITLE22=Back in the Saddle Again
TTITLE23=Rim of the Canyon
TTITLE24=The Hills of Wyoming
EXTD=YEAR: 2001
EXTT0=
EXTT1=
EXTT2=
EXTT3=
EXTT4=
EXTT5=
EXTT6=
EXTT7=
EXTT8=
EXTT9=
EXTT10=
EXTT11=
EXTT12=
EXTT13=
EXTT14=
EXTT15=
EXTT16=
EXTT17=
EXTT18=
EXTT19=
EXTT20=
EXTT21=
EXTT22=
EXTT23=
EXTT24=
PLAYORDER=
